<svg xmlns="http://www.w3.org/2000/svg" viewBox="0 0 64 64">
  <rect width="64" height="64" rx="14" fill="#09090b"/>
  <path d="M5.00 26.83L5.00 23.92L16.64 23.92L16.64 26.83L12.34 26.83L12.34 40.08L9.30 40.08L9.30 26.83L5.00 26.83ZM18.65 23.92L21.95 23.92L24.68 30.52L25.23 30.52L27.96 23.92L31.26 23.92L27.93 31.77L27.93 32.18L31.26 40.08L27.96 40.08L25.23 33.43L24.68 33.43L21.95 40.08L18.65 40.08L21.98 32.18L21.98 31.77L18.65 23.92ZM33.69 26.83L33.69 23.92L44.50 23.92L44.50 26.83L40.62 26.83L40.62 37.17L44.50 37.17L44.50 40.08L33.69 40.08L33.69 37.17L37.57 37.17L37.57 26.83L33.69 26.83ZM47.22 26.83L47.22 23.92L53.09 23.92Q56.09 23.92 57.54 25.31Q59 26.71 59 29.64L59 29.64L59 34.36Q59 37.29 57.54 38.69Q56.09 40.08 53.09 40.08L53.09 40.08L47.22 40.08L47.22 37.15L48.75 37.15L48.75 26.83L47.22 26.83ZM51.79 37.17L53.09 37.17Q54.68 37.17 55.32 36.42Q55.95 35.67 55.95 34.08L55.95 34.08L55.95 29.64Q55.95 28.26 55.32 27.54Q54.68 26.83 53.09 26.83L53.09 26.83L51.79 26.83L51.79 37.17Z" fill="#f7931a"/>
</svg>